<?xml version="1.0" encoding="utf-8"?>
<!-- Generator: Adobe Illustrator 24.1.3, SVG Export Plug-In . SVG Version: 6.00 Build 0)  -->
<svg version="1.1" id="Layer_1" xmlns="http://www.w3.org/2000/svg" xmlns:xlink="http://www.w3.org/1999/xlink" x="0px" y="0px"
	 viewBox="0 0 2381.4 2354.5" style="enable-background:new 0 0 2381.4 2354.5;" xml:space="preserve">
<style type="text/css">
	.st0{fill-rule:evenodd;clip-rule:evenodd;fill:#0071F1;}
</style>
<path id="path24" class="st0" d="M1877.7,231.3l12.3,248.1c201.2,222.2,280.6,537,180.4,832.8C1921,1753.8,1428.1,1986,969.5,1830.7
	s-709.1-639-559.6-1080.6c100.5-296.8,356.1-499,652.2-552.5l160-189C722.9-4.9,252.1,304.8,83.6,802.5
	c-207,611.4,120.9,1274.9,732.3,1481.8s1274.9-120.9,1481.9-732.3C2466,1055.2,2281,524,1877.7,231.3"/>
<path id="path26" class="st0" d="M1591.1,963.5l-8.5-346.9l-6.8-199.6l-4.6-173c0,0,1-83.4-2-103c-0.5-3.6-1.7-7.2-3.5-10.4
	l-0.6-1.2l-0.7-1.1c-6.8-12-21.6-16.9-34.2-11.3l-0.4,0.2l-2.1,1.1c-3.1,1.5-6,3.5-8.5,5.9c-14.2,13.8-64.1,80.6-64.1,80.6
	l-108.7,134.6l-126.6,154.5l-217.5,270.4c0,0-99.8,124.5-77.7,277.8s136,228,224.4,257.9s224.3,39.8,334.9-68.5
	S1591.1,963.5,1591.1,963.5"/>
</svg>
